<?xml version="1.0" encoding="UTF-8" standalone="no"?>
<!DOCTYPE svg PUBLIC "-//W3C//DTD SVG 1.1//EN" "http://www.w3.org/Graphics/SVG/1.1/DTD/svg11.dtd">
<svg width="100%" height="100%" viewBox="0 0 792 792" version="1.1" xmlns="http://www.w3.org/2000/svg" xmlns:xlink="http://www.w3.org/1999/xlink" xml:space="preserve" xmlns:serif="http://www.serif.com/" style="fill-rule:evenodd;clip-rule:evenodd;stroke-linejoin:round;stroke-miterlimit:2;">
    <g transform="matrix(1,0,0,1,-844.328,-844.329)">
        <g transform="matrix(4.16667,0,0,4.16667,0,0)">
            <g transform="matrix(1,0,0,1,0.0004,19.6391)">
                <g transform="matrix(1,0,0,1,366.666,203.021)">
                    <path d="M0,5.476C1.863,3.195 2.809,1.941 3.266,1.264C2.83,0.84 2.387,0.418 1.936,0C0.955,0.515 -1.002,1.881 -2.57,2.989L-2.568,2.991L-2.584,3.002C-1.717,3.802 -0.852,4.631 0,5.476" style="fill:rgb(29,29,27);fill-rule:nonzero;"/>
                </g>
                <g transform="matrix(1,0,0,1,283.191,298.918)">
                    <path d="M0,-114.821C-1.564,-114.581 -3.137,-114.3 -4.674,-113.985C-6.207,-113.67 -7.752,-113.312 -9.266,-112.921C-10.768,-112.533 -12.283,-112.102 -13.77,-111.639C-15.248,-111.178 -16.73,-110.675 -18.18,-110.143C-19.621,-109.614 -21.072,-109.042 -22.492,-108.441C-23.904,-107.843 -25.32,-107.202 -26.699,-106.537C-28.072,-105.874 -29.451,-105.167 -30.795,-104.436C-32.127,-103.713 -33.465,-102.942 -34.773,-102.146C-36.082,-101.351 -37.379,-100.518 -38.629,-99.673C-39.881,-98.825 -41.135,-97.933 -42.355,-97.02C-43.57,-96.11 -44.779,-95.16 -45.945,-94.197C-47.117,-93.23 -48.277,-92.225 -49.395,-91.209C-50.521,-90.184 -51.631,-89.125 -52.695,-88.061C-53.76,-86.997 -54.818,-85.886 -55.844,-84.759C-56.859,-83.643 -57.865,-82.482 -58.832,-81.31C-59.795,-80.144 -60.744,-78.936 -61.654,-77.72C-62.568,-76.5 -63.459,-75.246 -64.307,-73.994C-65.152,-72.744 -65.984,-71.446 -66.781,-70.139C-67.576,-68.83 -68.348,-67.491 -69.07,-66.161C-69.801,-64.816 -70.508,-63.438 -71.172,-62.065C-71.838,-60.686 -72.477,-59.271 -73.074,-57.859C-73.676,-56.438 -74.248,-54.987 -74.777,-53.546C-75.311,-52.097 -75.813,-50.613 -76.273,-49.135C-76.736,-47.65 -77.168,-46.134 -77.557,-44.631C-77.945,-43.118 -78.305,-41.573 -78.619,-40.039C-78.934,-38.503 -79.217,-36.93 -79.455,-35.365C-79.695,-33.804 -79.898,-32.207 -80.061,-30.617C-80.225,-29.018 -80.348,-27.397 -80.428,-25.8C-80.51,-24.19 -80.553,-22.547 -80.553,-20.917C-80.553,-19.287 -80.51,-17.644 -80.428,-16.034C-80.348,-14.436 -80.225,-12.816 -80.061,-11.216C-79.898,-9.626 -79.695,-8.029 -79.455,-6.469C-79.217,-4.903 -78.934,-3.331 -78.619,-1.795C-78.42,-0.83 -78.207,0.137 -77.977,1.097C-76.004,-0.273 -72.277,-3.3 -69.389,-5.645C-67.131,-7.478 -64.807,-9.366 -62.908,-10.828L-62.904,-10.837C-62.996,-11.54 -63.076,-12.245 -63.148,-12.954C-63.281,-14.257 -63.383,-15.588 -63.451,-16.91C-63.518,-18.231 -63.553,-19.579 -63.553,-20.917C-63.553,-22.254 -63.518,-23.602 -63.451,-24.924C-63.383,-26.246 -63.281,-27.577 -63.148,-28.879C-63.016,-30.188 -62.848,-31.501 -62.652,-32.779C-62.459,-34.044 -62.229,-35.335 -61.965,-36.616C-61.711,-37.861 -61.416,-39.129 -61.092,-40.386C-60.77,-41.637 -60.416,-42.882 -60.039,-44.087C-59.664,-45.294 -59.25,-46.512 -58.811,-47.709C-58.371,-48.906 -57.9,-50.098 -57.412,-51.252C-56.912,-52.428 -56.387,-53.591 -55.848,-54.706C-55.307,-55.829 -54.727,-56.961 -54.123,-58.069C-53.52,-59.176 -52.887,-60.276 -52.242,-61.335C-51.59,-62.408 -50.906,-63.473 -50.211,-64.5C-49.527,-65.513 -48.795,-66.542 -48.035,-67.557C-47.285,-68.561 -46.506,-69.553 -45.719,-70.506C-44.924,-71.467 -44.1,-72.419 -43.266,-73.337C-42.43,-74.257 -41.561,-75.168 -40.682,-76.047C-39.803,-76.925 -38.891,-77.795 -37.971,-78.631C-37.053,-79.465 -36.102,-80.29 -35.141,-81.084C-34.188,-81.871 -33.195,-82.651 -32.191,-83.402C-31.176,-84.16 -30.148,-84.892 -29.133,-85.577C-28.107,-86.272 -27.043,-86.955 -25.971,-87.608C-24.91,-88.253 -23.811,-88.885 -22.703,-89.488C-21.596,-90.091 -20.463,-90.672 -19.338,-91.214C-18.227,-91.751 -17.064,-92.278 -15.887,-92.777C-14.732,-93.266 -13.541,-93.738 -12.344,-94.176C-11.146,-94.616 -9.928,-95.029 -8.721,-95.405C-7.516,-95.781 -6.271,-96.135 -5.021,-96.458C-3.764,-96.782 -2.494,-97.075 -1.25,-97.331C0.029,-97.593 1.32,-97.824 2.588,-98.018C3.865,-98.214 5.178,-98.381 6.486,-98.514C7.789,-98.647 9.119,-98.749 10.441,-98.816C13.084,-98.951 15.813,-98.951 18.455,-98.816C19.777,-98.749 21.109,-98.647 22.412,-98.514C23.721,-98.381 25.031,-98.214 26.311,-98.017C27.578,-97.824 28.869,-97.592 30.146,-97.33C31.393,-97.075 32.662,-96.781 33.918,-96.458C35.168,-96.135 36.412,-95.781 37.619,-95.405C38.824,-95.029 40.043,-94.616 41.24,-94.176C42.434,-93.739 43.625,-93.268 44.783,-92.777C45.961,-92.278 47.123,-91.751 48.236,-91.213C49.359,-90.672 50.49,-90.092 51.6,-89.488C52.707,-88.885 53.807,-88.253 54.865,-87.609C55.709,-87.096 56.549,-86.563 57.369,-86.02C59.105,-87.144 64.012,-91.285 67.693,-94.394C68.814,-95.341 69.938,-96.289 71.018,-97.195C69.873,-98.047 68.699,-98.879 67.525,-99.672C66.258,-100.53 64.961,-101.362 63.67,-102.146C62.361,-102.942 61.023,-103.713 59.691,-104.436C58.342,-105.17 56.965,-105.877 55.596,-106.536C54.219,-107.202 52.803,-107.843 51.391,-108.441C49.971,-109.042 48.52,-109.614 47.078,-110.143C45.629,-110.675 44.145,-111.178 42.668,-111.639C41.182,-112.102 39.666,-112.533 38.162,-112.921C36.65,-113.312 35.105,-113.67 33.57,-113.985C32.035,-114.3 30.463,-114.581 28.898,-114.821C27.336,-115.061 25.738,-115.264 24.148,-115.426C22.551,-115.589 20.93,-115.713 19.332,-115.794C17.721,-115.876 16.078,-115.918 14.449,-115.918C12.818,-115.918 11.176,-115.876 9.566,-115.794C7.969,-115.713 6.348,-115.589 4.748,-115.426C3.158,-115.264 1.561,-115.061 0,-114.821" style="fill:rgb(29,29,27);fill-rule:nonzero;"/>
                </g>
                <g transform="matrix(1,0,0,1,228.375,348.042)">
                    <path d="M0,-0.775C-0.777,-1.551 -1.551,-2.352 -2.313,-3.166C-4.199,-0.857 -5.141,0.394 -5.586,1.059C-5.164,1.511 -4.74,1.956 -4.312,2.391C-3.316,1.863 -1.369,0.505 0.172,-0.58L0.168,-0.582L0.184,-0.592C0.121,-0.653 0.061,-0.713 0,-0.775" style="fill:rgb(29,29,27);fill-rule:nonzero;"/>
                </g>
                <g transform="matrix(1,0,0,1,255.154,333.429)">
                    <path d="M0,-48.971C-0.447,-48.571 -0.891,-48.176 -1.326,-47.786C-15.975,-34.686 -16.859,-34.146 -17.932,-34.146L-18.924,-34.146L-19.375,-35.093C-19.9,-36.332 -19.137,-37.558 -15.01,-43.158C-16.383,-42.009 -17.811,-40.8 -19.08,-39.723C-28.324,-31.888 -29.424,-31.15 -30.48,-31.15C-31.184,-31.15 -31.797,-31.595 -32.002,-32.258C-32.146,-32.716 -32.285,-33.18 -32.422,-33.649L-32.469,-33.591L-32.475,-33.617C-33.625,-32.199 -34.861,-30.694 -36.074,-29.219C-39.42,-25.15 -43.924,-19.673 -44.834,-18.006C-44.295,-16.753 -43.725,-15.502 -43.135,-14.281C-42.469,-12.902 -41.762,-11.523 -41.033,-10.183C-40.311,-8.853 -41.182,-7.28 -44.93,-1.651C-45.264,-1.147 -45.641,-0.581 -46.021,0C-42.799,-2.645 -38.396,-6.452 -34.799,-9.563C-31.629,-12.303 -28.363,-15.126 -25.627,-17.424L-25.629,-17.427L-25.621,-17.434C-25.777,-17.714 -25.932,-17.994 -26.086,-18.277C-26.85,-19.678 -26.895,-19.762 -6.635,-41.757C-4.492,-44.083 -2.209,-46.561 0,-48.971" style="fill:rgb(29,29,27);fill-rule:nonzero;"/>
                </g>
                <g transform="matrix(1,0,0,1,312.09,252.486)">
                    <path d="M0,119.42C1.564,119.181 3.137,118.899 4.672,118.583C6.189,118.273 7.734,117.914 9.266,117.52C10.785,117.127 12.301,116.695 13.77,116.238C15.229,115.783 16.713,115.279 18.18,114.742C19.643,114.204 21.094,113.631 22.492,113.039C23.885,112.45 25.299,111.811 26.699,111.135C28.086,110.465 29.463,109.758 30.793,109.034C32.109,108.319 33.449,107.549 34.771,106.744C36.057,105.963 37.354,105.131 38.627,104.271C39.879,103.424 41.133,102.531 42.354,101.619C43.588,100.693 44.797,99.744 45.943,98.797C47.113,97.829 48.275,96.823 49.393,95.808C50.498,94.803 51.609,93.743 52.693,92.659C53.748,91.607 54.807,90.495 55.842,89.358C56.871,88.228 57.875,87.067 58.83,85.909C59.801,84.734 60.75,83.526 61.654,82.318C62.559,81.11 63.449,79.857 64.305,78.593C65.15,77.343 65.982,76.046 66.779,74.738C67.566,73.444 68.336,72.106 69.068,70.76C69.799,69.415 70.506,68.036 71.168,66.663C71.832,65.29 72.473,63.875 73.074,62.456C73.674,61.042 74.246,59.592 74.777,58.144C75.309,56.694 75.813,55.211 76.273,53.733C76.736,52.248 77.168,50.732 77.555,49.229C77.945,47.714 78.303,46.17 78.617,44.638C78.936,43.083 79.217,41.51 79.453,39.964C79.693,38.402 79.896,36.805 80.059,35.216C80.223,33.616 80.346,31.996 80.426,30.399C80.508,28.795 80.551,27.152 80.551,25.514C80.551,23.878 80.508,22.236 80.426,20.633C80.346,19.035 80.223,17.414 80.059,15.815C79.896,14.226 79.693,12.628 79.453,11.067C79.217,9.52 78.936,7.947 78.617,6.392C78.305,4.864 77.947,3.319 77.555,1.801C77.303,0.824 77.031,-0.16 76.746,-1.137C74.777,0.207 70.934,3.32 67.965,5.723C65.945,7.357 63.867,9.041 62.092,10.422L62.092,10.426L62.086,10.43C62.295,11.495 62.484,12.576 62.65,13.652C62.848,14.952 63.016,16.263 63.146,17.553C63.279,18.855 63.381,20.186 63.449,21.508C63.516,22.822 63.551,24.17 63.551,25.514C63.551,26.86 63.516,28.208 63.449,29.522C63.381,30.844 63.279,32.175 63.146,33.478C63.016,34.767 62.848,36.079 62.65,37.377C62.453,38.662 62.221,39.953 61.963,41.215C61.701,42.485 61.408,43.753 61.09,44.986C60.771,46.221 60.418,47.466 60.037,48.686C59.664,49.884 59.25,51.103 58.809,52.308C58.371,53.502 57.9,54.693 57.41,55.85C56.926,56.993 56.4,58.155 55.848,59.303C55.295,60.447 54.715,61.578 54.121,62.667C53.525,63.761 52.895,64.859 52.242,65.934C51.588,67.007 50.904,68.071 50.209,69.099C49.506,70.14 48.773,71.169 48.033,72.156C47.279,73.163 46.5,74.155 45.717,75.104C44.932,76.055 44.105,77.007 43.264,77.935C42.428,78.855 41.557,79.767 40.68,80.645C39.822,81.503 38.91,82.373 37.969,83.229C37.043,84.072 36.09,84.898 35.137,85.683C34.174,86.48 33.182,87.26 32.191,88C31.176,88.759 30.146,89.491 29.133,90.177C28.104,90.872 27.039,91.555 25.969,92.207C24.893,92.86 23.793,93.492 22.701,94.087C21.592,94.691 20.461,95.271 19.338,95.813C18.201,96.36 17.039,96.886 15.883,97.375C14.732,97.864 13.541,98.336 12.342,98.775C11.145,99.215 9.928,99.628 8.721,100.004C7.508,100.382 6.264,100.736 5.02,101.056C3.746,101.384 2.477,101.678 1.248,101.929C-0.01,102.188 -1.301,102.419 -2.588,102.615C-3.859,102.812 -5.172,102.98 -6.486,103.113C-7.777,103.245 -9.107,103.346 -10.443,103.414C-13.084,103.549 -15.816,103.549 -18.457,103.414C-19.791,103.346 -21.123,103.245 -22.412,103.113C-23.727,102.98 -25.039,102.812 -26.312,102.615C-27.596,102.419 -28.889,102.188 -30.15,101.929C-31.375,101.678 -32.645,101.385 -33.92,101.056C-35.164,100.736 -36.408,100.382 -37.619,100.004C-38.826,99.628 -40.045,99.215 -41.242,98.775C-42.445,98.334 -43.637,97.863 -44.785,97.374C-45.939,96.886 -47.102,96.36 -48.238,95.813C-49.361,95.271 -50.494,94.691 -51.602,94.087C-52.693,93.493 -53.793,92.86 -54.867,92.208C-55.941,91.553 -57.006,90.87 -58.031,90.177C-58.82,89.644 -59.619,89.082 -60.412,88.502C-62.17,89.649 -67.01,93.729 -70.646,96.794C-71.752,97.726 -72.857,98.657 -73.922,99.548C-73.045,100.253 -72.152,100.946 -71.252,101.619C-70.033,102.531 -68.779,103.424 -67.527,104.272C-66.271,105.119 -64.975,105.951 -63.672,106.744C-62.35,107.549 -61.012,108.319 -59.695,109.033C-58.369,109.755 -56.99,110.462 -55.598,111.136C-54.199,111.811 -52.783,112.45 -51.393,113.038C-49.994,113.631 -48.543,114.204 -47.078,114.742C-45.611,115.279 -44.129,115.783 -42.668,116.238C-41.199,116.695 -39.684,117.127 -38.162,117.521C-36.633,117.914 -35.088,118.273 -33.572,118.583C-32.035,118.899 -30.463,119.181 -28.898,119.42C-27.336,119.658 -25.738,119.862 -24.148,120.025C-22.551,120.188 -20.93,120.311 -19.332,120.393C-16.139,120.557 -12.76,120.557 -9.566,120.393C-7.971,120.311 -6.348,120.188 -4.748,120.025C-3.16,119.862 -1.562,119.659 0,119.42" style="fill:rgb(29,29,27);fill-rule:nonzero;"/>
                </g>
                <g transform="matrix(1,0,0,1,223.057,332.24)">
                    <path d="M0,5.555C0.514,5.555 0.988,5.774 1.303,6.155C1.828,6.791 2.365,7.425 2.908,8.051C3.791,6.995 4.713,5.901 5.635,4.806C8.66,1.211 12.678,-3.561 13.85,-5.343C13.256,-6.078 12.67,-6.834 12.1,-7.597C11.34,-8.613 10.607,-9.641 9.922,-10.656C9.766,-10.887 9.611,-11.119 9.457,-11.351L9.439,-11.331L9.436,-11.337C5.98,-7.376 1.469,-2.355 -2.91,2.52C-7.201,7.295 -12.063,12.706 -15.717,16.906C-14.527,15.962 -13.328,15.001 -12.24,14.128C-3.697,7.279 -1.365,5.555 0,5.555" style="fill:rgb(29,29,27);fill-rule:nonzero;"/>
                </g>
                <g transform="matrix(1,0,0,1,370.852,259.07)">
                    <path d="M0,2.607C-0.18,1.8 -0.373,0.998 -0.576,0.211C-0.699,-0.266 -0.828,-0.744 -0.961,-1.223C-2.047,0.216 -2.518,0.942 -2.721,1.307C-2.373,2.14 -2.035,2.983 -1.709,3.83C-1.311,3.563 -0.758,3.174 0,2.607" style="fill:rgb(29,29,27);fill-rule:nonzero;"/>
                </g>
                <g transform="matrix(1,0,0,1,369.184,219.788)">
                    <path d="M0,-5.089C-0.49,-5.089 -0.936,-5.281 -1.252,-5.63C-1.609,-6.024 -1.973,-6.415 -2.338,-6.804C-3.217,-5.749 -4.139,-4.653 -5.061,-3.558C-8.045,-0.009 -12.002,4.696 -13.195,6.499C-12.578,7.196 -11.969,7.907 -11.377,8.623C-10.605,9.559 -9.84,10.532 -9.102,11.515L-9.086,11.497L-9.084,11.502C-5.646,7.559 -1.168,2.569 3.18,-2.274C7.451,-7.031 12.289,-12.422 15.926,-16.604C14.691,-15.627 13.445,-14.628 12.316,-13.722C3.717,-6.824 1.369,-5.089 0,-5.089" style="fill:rgb(29,29,27);fill-rule:nonzero;"/>
                </g>
                <g transform="matrix(-0.995987,-0.0894939,-0.0894939,0.995987,224.184,293.052)">
                    <path d="M0.023,-4.395C0.282,-4.184 0.603,-3.911 1.001,-3.56C0.71,-2.377 0.381,-1.173 0.023,0.019C-0.637,-1.066 -0.938,-1.645 -1.075,-1.953C-0.698,-2.759 -0.333,-3.576 0.023,-4.395" style="fill:rgb(29,29,27);fill-rule:nonzero;"/>
                </g>
                <g transform="matrix(1,0,0,1,361.203,246.314)">
                    <path d="M0,-8.553L0,-8.552C-2.758,-5.111 -10.561,3.378 -18.109,11.59C-20.361,14.039 -22.768,16.657 -25.08,19.187C-24.432,18.608 -23.789,18.035 -23.162,17.476C-8.982,4.825 -7.521,3.723 -6.371,3.723L-5.48,3.723L-4.992,4.536C-4.303,5.802 -5.064,7.045 -9.266,12.82L-9.295,12.859C-7.777,11.602 -6.172,10.247 -4.758,9.054C4.562,1.188 5.758,0.389 6.822,0.389C7.469,0.389 8.049,0.767 8.297,1.354C8.787,2.512 9.258,3.704 9.695,4.896C9.736,5.008 9.777,5.119 9.816,5.231L9.854,5.184L9.859,5.202C10.914,3.898 12.039,2.524 13.166,1.149C16.457,-2.871 20.881,-8.273 21.809,-9.966C21.221,-11.167 20.6,-12.373 19.955,-13.557C19.223,-14.902 18.453,-16.241 17.666,-17.535C16.812,-18.936 17.967,-20.822 21.432,-26.069C21.768,-26.578 22.146,-27.152 22.529,-27.74C19.275,-25.078 14.775,-21.188 11.105,-18.018C7.154,-14.603 3.07,-11.074 0,-8.553" style="fill:rgb(29,29,27);fill-rule:nonzero;"/>
                </g>
            </g>
        </g>
    </g>
</svg>
