<?xml version="1.0" encoding="UTF-8" standalone="no"?>
<!DOCTYPE svg PUBLIC "-//W3C//DTD SVG 1.1//EN" "http://www.w3.org/Graphics/SVG/1.1/DTD/svg11.dtd">
<svg width="100%" height="100%" viewBox="0 0 716 559" version="1.1" xmlns="http://www.w3.org/2000/svg" xmlns:xlink="http://www.w3.org/1999/xlink" xml:space="preserve" xmlns:serif="http://www.serif.com/" style="fill-rule:evenodd;clip-rule:evenodd;stroke-linejoin:round;stroke-miterlimit:2;">
    <g>
        <g transform="matrix(1,0,0,1,15,0)">
            <path d="M619.965,525.366C617.687,527.576 614.95,528.675 611.763,528.675C608.467,528.675 605.692,527.546 603.433,525.287C601.181,523.029 600.05,520.253 600.05,516.953C600.05,513.531 601.268,510.681 603.71,508.413C605.995,506.291 608.679,505.231 611.763,505.231C614.995,505.231 617.755,506.38 620.044,508.666C622.333,510.961 623.475,513.722 623.475,516.953C623.475,520.282 622.301,523.086 619.965,525.366ZM604.88,510.154C603.018,512.066 602.085,514.327 602.085,516.948C602.085,519.666 603.033,521.973 604.928,523.869C606.81,525.772 609.089,526.72 611.758,526.72C614.418,526.72 616.69,525.766 618.579,523.856C620.459,521.935 621.402,519.632 621.402,516.948C621.402,514.337 620.464,512.076 618.591,510.154C616.696,508.205 614.418,507.225 611.758,507.225C609.07,507.225 606.779,508.205 604.88,510.154ZM606.62,523.456L606.62,510.471C607.428,510.471 608.629,510.475 610.234,510.482C611.835,510.486 612.73,510.496 612.912,510.506C613.939,510.58 614.79,510.805 615.468,511.169C616.62,511.81 617.199,512.843 617.199,514.274C617.199,515.369 616.896,516.157 616.283,516.646C615.672,517.133 614.921,517.426 614.031,517.521C614.846,517.69 615.462,517.941 615.877,518.272C616.642,518.889 617.023,519.859 617.023,521.177L617.023,522.33C617.023,522.457 617.033,522.583 617.048,522.711C617.068,522.837 617.096,522.965 617.141,523.092L617.258,523.456L614.012,523.456C613.909,523.042 613.835,522.448 613.796,521.665C613.758,520.889 613.685,520.362 613.583,520.081C613.412,519.632 613.093,519.313 612.632,519.133C612.379,519.026 611.993,518.957 611.48,518.927L610.737,518.879L610.022,518.879L610.022,523.456L606.62,523.456ZM612.807,513.032C612.345,512.851 611.69,512.759 610.845,512.759L610.022,512.759L610.022,516.532L611.338,516.532C612.129,516.532 612.746,516.376 613.189,516.059C613.633,515.736 613.856,515.223 613.856,514.513C613.856,513.799 613.509,513.306 612.807,513.032Z" style="fill:rgb(255,203,5);fill-rule:nonzero;"/>
        </g>
        <g transform="matrix(1,0,0,1,15,0)">
            <path d="M551.472,505.457L564.963,505.457L577.432,533.3L577.556,533.3L577.556,505.457L590.021,505.457L590.021,557.495L577.193,557.495L564.064,529.071L563.947,529.071L563.947,557.495L551.472,557.495L551.472,505.457Z" style="fill:rgb(255,203,5);fill-rule:nonzero;"/>
        </g>
        <g transform="matrix(1,0,0,1,15,0)">
            <path d="M524.881,504.214C537.882,504.214 546.575,515.584 546.575,531.481C546.575,547.367 537.882,558.737 524.881,558.737C511.869,558.737 503.178,547.367 503.178,531.481C503.178,515.584 511.869,504.214 524.881,504.214ZM524.881,545.76C528.234,545.76 533.39,543.065 533.39,531.481C533.39,519.886 528.234,517.191 524.881,517.191C521.517,517.191 516.367,519.886 516.367,531.481C516.367,543.065 521.517,545.76 524.881,545.76Z" style="fill:rgb(255,203,5);fill-rule:nonzero;"/>
        </g>
        <g transform="matrix(1,0,0,1,15,0)">
            <rect x="485.512" y="505.457" width="13.187" height="52.038" style="fill:rgb(255,203,5);fill-rule:nonzero;"/>
        </g>
        <g transform="matrix(1,0,0,1,15,0)">
            <path d="M455.85,540.005C455.85,541.315 456.032,542.479 456.329,543.427C457.287,546.565 460.171,547.221 462.625,547.221C464.786,547.221 468.08,546.346 468.08,542.479C468.08,539.781 466.224,539.058 458.847,536.505C452.077,534.168 444.343,531.911 444.343,521.416C444.343,509.395 452.791,504.214 461.609,504.214C470.896,504.214 479.108,508.517 479.469,521.195L467.001,521.195C467.24,519.23 466.52,517.919 465.44,517.045C464.366,516.097 462.864,515.731 461.544,515.731C459.746,515.731 456.808,516.317 456.808,519.23C457.052,522.946 463.163,523.748 469.214,525.79C475.276,527.834 481.268,531.255 481.268,540.807C481.268,554.358 471.017,558.737 461.487,558.737C456.632,558.737 442.785,556.622 442.662,540.005L455.85,540.005Z" style="fill:rgb(255,203,5);fill-rule:nonzero;"/>
        </g>
        <g transform="matrix(1,0,0,1,15,0)">
            <rect x="424.342" y="505.457" width="13.188" height="52.038" style="fill:rgb(255,203,5);fill-rule:nonzero;"/>
        </g>
        <g transform="matrix(1,0,0,1,15,0)">
            <path d="M406.01,557.495L391.262,557.495L378.5,505.457L391.805,505.457L398.815,537.013L398.938,537.013L405.83,505.457L419.376,505.457L406.01,557.495Z" style="fill:rgb(255,203,5);fill-rule:nonzero;"/>
        </g>
        <g transform="matrix(1,0,0,1,15,0)">
            <path d="M338.914,505.457L374.345,505.457L374.345,518.791L352.103,518.791L352.103,525.283L372.307,525.283L372.307,537.668L352.103,537.668L352.103,544.159L375,544.159L375,557.495L338.914,557.495L338.914,505.457Z" style="fill:rgb(255,203,5);fill-rule:nonzero;"/>
        </g>
        <g transform="matrix(1,0,0,1,15,0)">
            <path d="M303.521,505.457L316.704,505.457L316.704,544.159L335.651,544.159L335.651,557.495L303.521,557.495L303.521,505.457Z" style="fill:rgb(255,203,5);fill-rule:nonzero;"/>
        </g>
        <g transform="matrix(1,0,0,1,15,0)">
            <path d="M263.383,505.457L298.814,505.457L298.814,518.791L276.572,518.791L276.572,525.283L296.779,525.283L296.779,537.668L276.572,537.668L276.572,544.159L299.478,544.159L299.478,557.495L263.383,557.495L263.383,505.457Z" style="fill:rgb(255,203,5);fill-rule:nonzero;"/>
        </g>
        <g transform="matrix(1,0,0,1,15,0)">
            <path d="M234.387,518.791L222.397,518.791L222.397,505.457L259.561,505.457L259.561,518.791L247.575,518.791L247.575,557.495L234.387,557.495L234.387,518.791Z" style="fill:rgb(255,203,5);fill-rule:nonzero;"/>
        </g>
        <g transform="matrix(1,0,0,1,15,0)">
            <path d="M187.187,524.842C186.947,522.946 185.749,517.191 180.293,517.191C174.116,517.191 172.141,524.48 172.141,531.481C172.141,538.47 174.116,545.76 180.293,545.76C184.727,545.76 186.468,541.971 187.245,537.086L200.194,537.086C200.194,547.583 193.18,558.737 180.651,558.737C166.802,558.737 158.952,546.854 158.952,531.481C158.952,515.077 167.467,504.214 180.651,504.214C192.402,504.293 198.875,511.794 200.014,524.842L187.187,524.842Z" style="fill:rgb(255,203,5);fill-rule:nonzero;"/>
        </g>
        <g transform="matrix(1,0,0,1,15,0)">
            <rect x="140.69" y="505.457" width="13.189" height="52.038" style="fill:rgb(255,203,5);fill-rule:nonzero;"/>
        </g>
        <g transform="matrix(1,0,0,1,15,0)">
            <path d="M111.029,540.005C111.029,541.315 111.205,542.479 111.507,543.427C112.466,546.565 115.34,547.221 117.804,547.221C119.954,547.221 123.259,546.346 123.259,542.479C123.259,539.781 121.397,539.058 114.025,536.505C107.245,534.168 99.518,531.911 99.518,521.416C99.518,509.395 107.969,504.214 116.777,504.214C126.075,504.214 134.287,508.517 134.643,521.195L122.173,521.195C122.418,519.23 121.694,517.919 120.62,517.045C119.539,516.097 118.039,515.731 116.718,515.731C114.919,515.731 111.987,516.317 111.987,519.23C112.221,522.946 118.341,523.748 124.393,525.79C130.444,527.834 136.442,531.255 136.442,540.807C136.442,554.358 126.192,558.737 116.66,558.737C111.801,558.737 97.958,556.622 97.84,540.005L111.029,540.005Z" style="fill:rgb(255,203,5);fill-rule:nonzero;"/>
        </g>
        <g transform="matrix(1,0,0,1,15,0)">
            <path d="M94.028,537.38C94.028,551.81 87.614,558.737 74.543,558.737C61.478,558.737 55.001,551.81 55.001,537.38L55.001,505.457L68.189,505.457L68.189,533.808C68.189,539.124 68.189,545.76 74.603,545.76C80.839,545.76 80.839,539.124 80.839,533.808L80.839,505.457L94.028,505.457L94.028,537.38Z" style="fill:rgb(255,203,5);fill-rule:nonzero;"/>
        </g>
        <g transform="matrix(1,0.000465738,-0.000465738,1,14.478,-0.45722)">
            <path d="M0.478,505.457L19.239,505.457L25.355,536.066L25.477,536.066L31.586,505.457L50.347,505.457L50.347,557.495L37.882,557.495L37.882,524.116L37.76,524.116L30.331,557.495L20.501,557.495L13.06,524.116L12.944,524.116L12.944,557.495L0.478,557.495L0.478,505.457Z" style="fill:rgb(255,203,5);fill-rule:nonzero;"/>
        </g>
        <g transform="matrix(-1,-0.000463655,0.000463655,-1,636.012,492.022)">
            <path d="M0.394,491.746L237.059,491.746L274.541,463.999L274.541,337.332L289.711,351.713L345,339.106L359.213,327.45L359.213,491.746L594.913,491.746L636.024,462.668L636.024,25.144L594.913,0.144L364.404,0.144L315.437,49.032L303.531,35.75L226.294,0.144L0.394,0.144" style="fill-rule:nonzero;"/>
            <path d="M583.46,482.887L368.071,482.887L368.071,273.106L289.712,339.853L225.941,274.092L225.941,482.887L9.252,482.887L9.252,9L222.294,9L290.569,85.408L367.405,9L583.427,9L583.46,482.887Z" style="fill:rgb(255,203,5);fill-rule:nonzero;"/>
            <path d="M234.059,295.87L234.059,482.887L265.687,459.486L265.687,327.788L234.059,295.87Z" style="fill:rgb(0,182,241);fill-rule:nonzero;"/>
            <path d="M302.01,339.629L343.189,330.249L359.825,316.589L359.825,291.889L302.01,339.629Z" style="fill:rgb(0,182,241);fill-rule:nonzero;"/>
            <path d="M296.844,41.547L238.649,14.733L291.254,73.657L309.468,55.688L296.844,41.547Z" style="fill:rgb(0,182,241);fill-rule:nonzero;"/>
            <path d="M592.312,482.887L627.168,458.729L627.168,29.997L592.216,9L592.312,482.887Z" style="fill:rgb(0,182,241);fill-rule:nonzero;"/>
        </g>
        <path d="M487.84,93.8L487.824,93.805C482.902,95.219 477.232,99.349 475.023,101.059C475.039,101.046 474.043,101.757 474.043,101.757C469.261,105.142 466.553,107.229 465.018,109.249C465.017,109.251 464.061,110.597 464.061,110.597C462.049,113.503 460.663,115.3 459.913,115.986C459.335,116.366 457.724,117.119 456.629,117.629C455.023,118.378 453.307,119.249 451.66,120.212C451.612,120.222 451.457,120.255 451.457,120.255C448.526,120.858 446.144,121.374 444.361,122.061C443.29,122.468 441.748,123.223 439.118,124.519C439.118,124.519 435.429,126.29 435.294,126.355C435.006,126.439 433.614,126.854 433.614,126.854L428.442,128.472C427.29,128.895 426.075,129.587 424.364,130.591C424.364,130.591 424.234,130.666 424.167,130.706C423.105,130.881 421.714,130.952 420.887,130.886C420.719,130.812 420.531,130.73 420.531,130.73C416.553,128.961 408.276,125.281 400.218,126.634C396.553,127.257 393.087,128.673 390.435,130.531C388.002,131.41 384.398,133.212 382.102,136.502C381.071,137.241 379.482,138.53 378.216,140.852C375.849,145.207 374.346,151.091 374.168,153.164C374.098,153.908 374.068,154.627 374.068,155.321C374.068,158.135 374.568,160.54 374.986,162.551L375.276,163.998C375.466,165.035 375.516,165.741 375.516,166.194C375.516,166.453 375.501,166.616 375.486,166.723C375.311,166.873 374.887,167.191 373.938,167.684C373.912,167.697 370.255,170.034 370.255,170.034C370.255,170.034 368.534,171.177 368.222,171.384C367.689,171.583 365.985,172.227 365.985,172.227C362.64,173.456 360.924,174.115 359.644,174.837C357.36,176.133 355.182,177.17 353.259,178.085C350.329,179.479 348.394,180.401 346.797,181.915C343.404,185.152 337.802,188.591 335.928,189.644L335.743,189.748L335.556,189.865C333.001,191.467 328.184,194.186 323.358,196.885C320.521,198.466 317.395,200.94 314.437,203.337C314.437,203.337 313.798,203.849 313.518,204.074C313.185,204.249 311.49,205.143 311.49,205.143C309.081,206.39 307.54,207.199 306.457,207.927C306.457,207.929 304.498,209.313 304.498,209.313C303.525,210.013 301.247,211.651 300.608,212.032C298.895,212.988 295.934,213.825 292.798,214.711C285.96,216.652 278.291,218.829 272.691,225.063C266.868,231.531 263.708,240.071 263.708,248.339C263.708,251.952 264.311,255.514 265.56,258.828C269.325,268.854 277.68,275.34 283.69,277.845C291.029,280.894 303.447,280.827 310.73,275.408C315.159,272.09 317.209,267.653 318.705,264.412C319.82,261.995 320.796,260.908 321.165,260.552C323.167,258.615 325.089,255.864 327.396,252.468C327.396,252.468 328.555,250.802 328.792,250.461C330.434,248.916 332.594,247.465 335.41,246.043C342.766,242.325 347.683,237.833 350.325,235.42L351.181,234.644C351.2,234.628 352.921,232.991 352.921,232.991C353.415,232.505 354.09,231.84 354.358,231.667C361.612,227.707 365.621,224.686 368.015,222.88L368.356,222.623C369.236,221.994 372.658,220.263 374.496,219.332L377.742,217.665C379.545,216.706 381.232,215.526 382.766,214.417C383.498,217.643 384.403,223.034 385.158,231.825C385.176,232.161 385.232,234.007 385.325,241.619L385.335,242.411C385.354,243.901 385.572,246.302 385.877,249.53C385.877,249.53 386.118,252.257 386.132,252.42C386.069,253.606 386.024,254.812 386.024,256.059C386.024,259.436 386.23,262.977 386.47,266.41C386.444,267.119 386.426,267.823 386.426,268.518C386.426,271.298 386.637,273.956 387.057,276.446C387.171,277.128 387.221,278.46 387.221,279.956C387.221,282.039 387.124,284.436 386.966,285.83C386.826,287.034 386.781,288.184 386.781,289.274C386.781,290.306 386.822,291.285 386.859,292.204L386.917,293.892C386.921,294.161 386.923,294.43 386.923,294.7C386.923,298.03 386.567,301.343 386.347,303.385L386.119,306.015C386.119,306.016 386.099,306.918 386.099,306.918C386.001,311.93 385.875,314.018 385.777,314.887C385.723,315.122 385.592,315.693 385.592,315.693C385.065,317.965 384.682,319.675 384.567,321.003C384.519,321.511 384.498,322.059 384.498,322.654C384.498,324.673 384.751,327.227 385.108,330.568C385.243,331.835 385.433,333.632 385.473,334.436C385.246,336.134 384.679,338.082 384.004,340.341C382.778,344.415 381.199,349.657 381.199,355.867C381.199,357.315 381.285,358.816 381.481,360.367C382.087,365.168 383.055,369.427 384.416,373.383C384.621,374.144 385.778,378.809 386.185,380.915L386.272,381.362L386.404,381.798C386.886,383.392 388.232,388.115 388.668,390.788C388.763,391.375 388.794,392.23 388.794,393.119C388.794,394.279 388.742,395.497 388.709,396.252L388.659,398.155C388.684,400.081 389.142,402.676 390.094,407.408C390.094,407.408 390.236,408.127 390.336,408.644C390.318,409.036 390.295,409.5 390.295,409.5C390.216,410.948 390.155,412.213 390.155,413.353C390.155,414.411 390.208,415.36 390.348,416.245C390.916,419.79 392.638,430.54 400.59,435.357C405.567,438.375 410.142,439.097 413.17,439.575C413.881,439.687 414.766,439.827 415.089,439.923C424.755,442.84 435.251,441.118 441.299,438.755C444.791,437.388 447.974,434.847 449.824,431.956C449.806,431.984 449.537,432.349 449.537,432.349L450.257,431.662C451.35,430.648 452.846,429.259 454.168,427.235C455.799,424.729 456.934,420.958 458.651,415.013C459.275,412.854 459.919,410.622 460.367,409.402C461.209,407.103 461.517,404.475 461.517,401.857C461.517,394.85 459.306,387.911 459.178,387.514C458.608,385.785 454.833,376.946 453.801,374.629C453.443,373.252 452.946,368.94 452.73,367.059L452.25,363.339C452.249,363.334 451.078,358.482 451.078,358.482C451.078,358.482 450.477,356.075 450.312,355.412C450.318,354.899 450.331,353.873 450.331,353.873C450.351,352.873 450.366,352 450.366,351.219C450.366,349.803 450.316,348.693 450.155,347.694C449.801,345.505 449.66,343.284 449.66,341.025C449.66,336.688 450.181,332.214 450.722,327.572L450.793,326.962L450.779,326.349C450.73,324.128 450.692,321.493 450.692,319.967C450.692,319.449 450.697,319.058 450.707,318.856L450.684,319.122C451.149,314.665 451.319,309.796 451.483,305.089L451.49,304.882C451.491,304.848 451.855,296.548 451.855,296.548C451.875,296.264 451.883,295.984 451.883,295.706C451.883,294.69 451.769,293.696 451.649,292.657C451.554,291.83 451.41,290.581 451.41,289.665C451.41,289.372 451.424,289.112 451.46,288.912C451.576,288.269 451.631,287.614 451.631,286.884C451.631,285.189 451.33,283.096 450.769,279.85C450.769,279.85 450.708,279.489 450.674,279.296C450.669,279.194 450.666,279.08 450.666,278.928C450.666,277.508 450.865,274.072 451.002,271.709C451.217,267.988 451.369,265.24 451.369,263.186C451.369,262.363 451.344,261.651 451.291,261.033C451.289,261.006 450.799,257.775 450.799,257.775C450.344,255.076 449.59,250.587 449.224,246.515C449.123,243.795 449.045,240.6 449.045,238.695C449.045,238.051 449.054,237.555 449.074,237.278C449.127,236.499 449.148,235.593 449.148,234.565C449.148,232.922 449.094,230.968 449.033,228.725L448.886,219.064C448.887,219.017 448.887,218.965 448.887,218.91C448.887,215.982 448.082,201.951 447.789,199.897C447.619,198.689 447.452,196.543 447.452,194.235C447.452,192.737 447.522,191.17 447.708,189.747C448.243,185.659 448.308,183.184 448.36,181.196C448.396,179.814 448.432,178.798 448.619,177.444C449.365,176.707 451.085,175.652 452.289,175.142C458.731,173.715 462.724,172.502 465.363,170.187C467.635,168.188 470.947,167.211 472.726,166.686L472.873,166.643C477.202,165.365 479.986,162.805 481.481,161.429C481.481,161.429 481.585,161.334 481.69,161.24C482.759,160.613 488.363,157.324 488.363,157.324C488.359,157.326 491.462,155.12 491.462,155.12C492.142,154.541 492.575,154.182 492.881,154.101C494.668,153.628 496.215,152.809 497.711,152.017C498.559,151.568 499.521,151.059 500.103,150.865L501.762,150.334C504.488,149.477 505.854,149.031 507.12,148.269L507.254,148.187C514.059,143.926 523.495,132.936 523.495,119.707C523.495,117.952 523.329,116.158 522.969,114.335C522.072,109.835 519.631,106.698 517.849,104.406L516.743,102.926C510.756,93.839 501.787,93.898 498.839,93.917C498.214,93.92 496.916,93.781 495.873,93.67C492.915,93.353 490.361,93.081 487.84,93.8ZM381.741,137.075C381.565,137.359 381.362,137.615 381.209,137.92C381.373,137.594 381.557,137.318 381.741,137.075Z" style="fill-rule:nonzero;"/>
        <path d="M514.279,116.051C513.607,112.681 510.931,110.209 509.341,107.791C506.151,102.949 501.895,102.753 498.895,102.773C496.191,102.787 491.753,101.892 490.268,102.316C487.122,103.22 482.489,106.477 480.441,108.062C479.565,108.748 473.347,112.923 472.066,114.609C471.38,115.504 468.09,120.623 465.643,122.75C463.501,124.617 457.864,126.431 454.864,128.587C452.969,129.006 449.174,129.697 447.542,130.326C445.952,130.93 439.667,134.22 438.286,134.696C437.381,135.005 432.972,136.225 431.578,136.753C430.554,137.129 427.726,138.957 427.316,139.072C425.155,139.7 421.05,140.043 418.637,139.519C417.356,139.243 408.547,134.215 401.682,135.368C398.549,135.901 395.874,137.239 394.593,138.496C392.712,138.972 389.927,140.295 389.113,141.91C388.333,143.457 386.904,143.414 385.99,145.09C384.2,148.384 383.057,153.136 382.99,153.921C382.695,157.079 383.5,159.754 383.985,162.401C385.376,169.962 382.914,172.999 378.019,175.542C376.91,176.123 373.106,178.908 372.126,179.356C370.763,179.975 365.326,181.798 363.993,182.55C358.775,185.512 354.014,187.273 352.89,188.34C347.929,193.073 340.259,197.367 340.259,197.367C337.664,198.996 333.246,201.5 327.68,204.614C324.314,206.49 319.286,210.898 318.419,211.47C317.496,212.079 312.725,214.383 311.392,215.279C310.516,215.859 306.297,218.992 304.993,219.726C302.298,221.23 298.841,222.206 295.185,223.239C289.281,224.915 283.177,226.639 279.278,230.981C273.35,237.565 270.856,247.769 273.845,255.706C276.826,263.642 283.668,268.242 287.096,269.67C292.481,271.908 301.351,271.346 305.44,268.304C308.059,266.342 309.444,263.337 310.668,260.69C311.13,259.686 312.639,256.472 315.01,254.182C317.477,251.796 321.271,245.407 322.323,244.374C324.828,241.922 327.927,239.898 331.418,238.137C338.549,234.533 342.949,230.114 345.292,228.029C346.919,226.572 348.267,224.906 350.067,223.92C357.156,220.049 360.803,217.221 363.032,215.545C364.936,214.107 370.583,211.441 373.582,209.846C376.686,208.194 380.324,205.033 381.723,204.385C383.576,203.528 386.78,203.461 387.97,204.252C389.151,205.038 392.103,209.222 393.979,231.066C394.074,232.119 394.169,240.889 394.188,242.293C394.217,244.507 395.031,251.654 394.988,252.339C394.716,256.539 394.993,261.509 395.331,266.247C395.345,266.437 395.031,270.484 395.788,274.974C396.283,277.931 396.049,284.301 395.764,286.825C395.493,289.158 395.731,291.486 395.769,293.743C395.874,299.442 395.007,304.969 394.969,306.274C394.94,307.274 394.864,313.844 394.522,316.32C394.455,316.805 393.493,320.557 393.388,321.766C393.117,324.67 394.531,333.355 394.322,335.183C394.026,337.745 393.264,340.278 392.464,342.954C391.055,347.633 389.465,352.933 390.265,359.255C390.703,362.722 391.446,366.764 392.921,370.925C392.989,371.111 394.378,376.648 394.878,379.234C394.878,379.234 396.778,385.508 397.407,389.361C397.892,392.365 397.493,396.912 397.511,398.002C397.54,400.135 399.073,406.876 399.202,407.901C399.293,408.624 398.826,413.176 399.092,414.856C399.678,418.513 401.083,425.302 405.177,427.783C410.186,430.821 414.67,430.549 417.641,431.444C424.917,433.639 433.335,432.358 438.077,430.506C439.62,429.902 441.448,428.612 442.362,427.183C443.333,425.678 445.399,424.464 446.752,422.393C448.328,419.97 450.57,410.39 452.05,406.353C453.617,402.073 451.875,393.717 450.751,390.242C450.389,389.146 446.518,379.986 445.561,377.896C444.609,375.801 443.876,366.845 443.528,364.888C443.294,363.579 441.676,357.694 441.486,356.541C441.342,355.657 441.657,350.638 441.41,349.105C440.181,341.501 441.067,333.898 441.923,326.546C441.923,326.546 441.761,319.262 441.876,318.186C442.314,313.987 442.476,309.202 442.637,304.574C442.743,301.456 442.842,298.503 443.018,295.942C443.119,294.485 442.162,290.572 442.743,287.343C442.961,286.124 441.938,280.935 441.872,280.334C441.552,277.516 442.752,265.076 442.466,261.805C442.352,260.543 440.943,253.53 440.381,247.117C440.381,247.117 440.072,239.018 440.238,236.656C440.448,233.59 439.961,225.934 440.029,218.978C440.057,216.693 439.238,202.681 439.019,201.147C438.633,198.395 438.338,193.096 438.924,188.602C439.867,181.398 439.162,180.089 440.019,175.061C440.838,170.271 449.022,166.8 449.689,166.648C451.542,166.225 457.93,164.925 459.521,163.53C463.33,160.178 468.09,158.821 470.362,158.15C473.766,157.145 475.627,154.488 476.756,153.87C478.252,153.05 482.87,150.203 484.25,149.479C485.627,148.76 487.259,146.432 490.601,145.542C492.278,145.099 494.801,143.299 497.291,142.466C499.047,141.881 501.952,141.042 502.552,140.681C508.513,136.948 516.354,126.555 514.279,116.051Z" style="fill:rgb(237,28,36);fill-rule:nonzero;"/>
        <path d="M674.22,64.48C663.622,65.373 656.515,71.213 652.697,74.351C652.558,74.465 642.131,83.961 639.397,87.582C639.411,87.564 637.433,90.665 637.433,90.665L635.894,93.157C635.889,93.158 630.732,99.599 630.732,99.599L630.472,99.915C630.469,99.918 624.54,107.335 624.54,107.335C624.594,107.263 624.698,107.134 624.698,107.134C624.299,107.599 622.208,109.718 620.679,111.265C615.212,116.798 614.005,118.1 613.312,119.025C613.334,118.997 611.988,120.79 611.988,120.79C606.261,128.436 602.971,132.757 602.21,133.633L602.338,133.494C600.595,135.31 596.272,141.049 594.81,143.204C592.708,146.304 590.093,150.158 589.019,151.593C588.1,152.819 586.994,154.058 585.846,155.325L585.742,155.44L576.394,166.519L576.047,167.081C574.019,170.373 571.156,175.221 570.067,177.31C570.044,177.353 569.592,178.343 569.592,178.343C566.488,185.531 564.723,187.884 564.256,188.434C560.606,192.751 559.061,198.945 558.303,202.101C558.103,202.7 557.386,204.55 556.62,206.05C555.556,208.14 553.496,212.66 552.74,214.327C545.75,225.248 545.446,225.782 545.307,226.029C544.554,227.363 542.913,229.633 541.464,231.635C541.455,231.648 541.384,231.746 541.384,231.746C537.253,237.478 535.773,239.778 535.142,242.098L535.094,242.277L535.053,242.457C534.361,245.503 533.09,247.292 531.861,249.022L531.779,249.139C530.63,250.772 529.443,252.46 529.005,254.79C528.009,260.131 525.886,263.859 524.499,265.395C523.273,264.406 522.595,262.713 521.469,259.016C521.009,256.326 520.039,250.161 519.904,246.981C519.904,246.971 519.896,246.783 519.896,246.783C519.779,244.095 519.658,241.315 519.379,238.635L518.08,227.671C517.521,223.197 516.33,211.177 516.265,210.535C515.267,198.046 514.449,188.175 503.82,180.76C500.476,178.431 496.037,177.926 491.737,177.727L491.495,177.715L491.73,177.734C486.255,177.164 479.996,177.522 475.833,178.655C474.128,179.108 472.575,179.972 468.141,182.699L466.759,183.54C462.661,185.808 457.542,188.64 455.214,193.294C453.165,197.386 452.425,203.032 452.425,209.043C452.425,215.52 453.283,222.422 454.282,228.263C454.533,229.709 455.153,231.961 460.532,246.411C460.946,247.644 464.929,259.519 466.158,263.808L470.349,277.496L470.366,277.543C471.804,281.849 473.977,288.357 474.582,291.854C475.404,296.639 476.71,301.218 477.972,305.647C477.968,305.634 478.036,305.873 478.036,305.873C479.171,309.876 480.344,314.017 481.16,318.301C481.155,318.272 482.317,322.584 482.317,322.584L483.792,327.911L483.732,327.565C484.048,329.721 486.256,337.253 487.048,339.457C487.038,339.427 487.19,339.856 487.19,339.856C487.863,341.748 488.559,343.705 489.013,345.31C491.079,352.637 493.379,358.124 496.198,364.108C498.525,369.074 500.3,372.472 501.466,374.191C507.917,383.655 514.646,389.495 528.277,389.415C535.388,389.377 542.698,388.676 547.951,383.832C552.789,379.357 556.204,374.171 556.347,373.953C559.943,368.444 562.662,361.612 564.008,354.707C564.481,352.245 564.617,349.766 564.617,347.31C564.617,345.618 564.552,343.936 564.489,342.278C564.427,340.719 564.364,339.137 564.364,337.592C564.364,336.066 564.425,334.577 564.609,333.184C564.864,331.242 565.881,324.472 568.352,318.332C568.39,318.246 568.454,318.102 568.454,318.102C569.575,315.582 570.95,312.355 571.635,309.751C572.387,306.888 574.212,304.156 576.145,301.263L579.157,296.485C580.966,293.272 588.003,281.29 588.908,279.919L590.9,277.055L591.168,276.644L600.224,261.723L600.381,261.411C601.156,259.873 602.902,255.634 603.627,253.404C604.037,252.13 604.516,250.653 604.93,249.644C605.322,249.201 605.913,248.533 605.913,248.533C608.902,245.222 610.939,242.856 611.977,240.239C611.968,240.26 611.814,240.616 611.814,240.616L613.24,238.027C615.201,234.53 616.535,232.108 617.185,230.384C618.042,228.121 620.328,224.429 621.693,222.223C622.826,220.393 623.45,219.384 623.89,218.322C624.983,215.704 626.214,212.754 627.9,210.947C629.53,209.199 631.29,206.36 633.788,202.228C635.365,199.624 637.474,196.141 638.35,195.271C641.896,191.796 644.919,186.353 646.951,182.67C647.324,182.11 648.662,180.476 649.648,179.271C653.43,174.655 656.212,171.141 657.585,167.939C658.252,166.381 660.201,164.732 663.379,163.036L665.707,161.518C667.422,160.042 668.734,158.58 669.891,157.29C671.764,155.213 673.111,153.721 675.731,152.315C677.66,151.279 685.191,147.765 686.625,147.231C689.429,146.248 694.503,143.62 698.087,140.939C702.653,137.513 707.449,130.24 708.68,127.978C711.46,122.885 713.306,115.232 714.158,111.125C715.211,105.994 715.801,102.869 715.801,98.046C715.801,97.053 715.776,95.988 715.725,94.819C715.344,86.058 708.808,75.229 700.523,69.631C694.624,65.64 684.297,63.617 674.22,64.48Z" style="fill-rule:nonzero;"/>
        <path d="M592.473,257.426C593.01,256.36 594.586,252.57 595.206,250.665C595.891,248.533 596.543,246.523 597.295,245.028C597.777,244.057 602.9,239.105 603.747,236.972C604.162,235.935 608.127,229.307 608.899,227.26C610.623,222.708 615.198,216.166 615.711,214.928C617.021,211.79 618.645,207.886 621.425,204.906C622.544,203.706 624.492,200.488 626.21,197.645C628.505,193.855 630.486,190.58 632.152,188.947C634.819,186.332 637.513,181.448 639.293,178.22C640.532,175.982 647.835,168.207 649.445,164.451C652.092,158.27 659.41,155.257 659.91,154.824C661.205,153.709 662.223,152.576 663.299,151.376C665.395,149.053 667.551,146.653 671.545,144.511C673.76,143.321 682.002,139.464 683.668,138.883C685.515,138.236 689.819,136.064 692.786,133.846C695.837,131.556 699.884,125.614 700.903,123.743C703.227,119.486 704.883,112.24 705.488,109.326C706.716,103.341 707.13,100.975 706.878,95.205C706.617,89.186 701.542,81.006 695.566,76.969C691.372,74.131 682.906,72.623 674.969,73.303C667.727,73.913 662.776,77.531 658.32,81.192C658.029,81.435 648.435,90.31 646.464,92.919C645.921,93.633 643.812,97.366 643.007,98.432C641.161,100.879 639.199,103.25 637.308,105.545C635.409,107.85 633.447,110.23 631.614,112.664C631.2,113.202 630.081,114.349 626.982,117.487C624.739,119.757 620.983,123.557 620.402,124.333C619.021,126.162 609.946,138.35 608.747,139.607C607.503,140.902 603.547,146.101 602.138,148.177C599.872,151.519 597.3,155.309 596.11,156.899C594.954,158.442 593.687,159.861 592.411,161.27L583.588,171.726C581.456,175.187 578.798,179.72 577.922,181.4C577.742,181.752 574.238,190.361 571.009,194.165C568.629,196.979 567.429,202.021 566.848,204.444C566.739,204.92 565.715,207.715 564.505,210.082C563.33,212.391 560.544,218.561 560.544,218.561C560.545,218.561 553.336,229.821 553.022,230.378C552.042,232.116 550.394,234.401 548.641,236.825C546.909,239.229 544.009,243.243 543.69,244.419C542.614,249.156 540.577,252.046 539.082,254.151C538.453,255.045 537.795,255.969 537.71,256.426C536.196,264.548 532.263,271.567 527.93,273.895C526.064,274.9 524.093,275.047 522.36,274.319C516.028,271.643 514.475,266.51 512.837,261.074C512.837,261.074 511.257,252.08 511.057,247.356C510.943,244.733 510.829,242.024 510.572,239.548C510.2,235.954 509.743,232.306 509.295,228.788C508.701,224.027 507.448,211.348 507.448,211.348C506.505,199.559 505.982,193.065 498.754,188.023C496.793,186.657 491.441,186.604 490.865,186.547C486.48,186.09 481.262,186.356 478.158,187.199C477.086,187.485 472.096,190.708 471.073,191.275C468.026,192.96 464.236,195.055 463.136,197.255C460.722,202.073 460.674,213.1 463.012,226.769C463.303,228.45 467.211,238.967 468.883,243.457C468.883,243.457 473.311,256.617 474.672,261.369C475.672,264.873 478.767,274.738 478.767,274.738C480.385,279.584 482.595,286.217 483.309,290.345C484.047,294.639 485.233,298.81 486.49,303.219C487.699,307.485 488.956,311.889 489.861,316.645C490.003,317.408 492.336,325.177 492.499,326.301C492.66,327.401 494.526,334.076 495.383,336.461C496.155,338.632 496.964,340.879 497.536,342.898C499.43,349.621 501.573,354.735 504.21,360.333C506.258,364.705 507.929,367.942 508.795,369.218C514.066,376.951 518.313,380.617 528.226,380.559C535.53,380.521 539.501,379.579 541.948,377.322C545.304,374.217 548.127,370.341 548.937,369.104C551.918,364.538 554.184,358.82 555.317,353.011C555.917,349.888 555.784,346.355 555.64,342.618C555.502,339.147 555.364,335.557 555.831,332.024C556.117,329.838 557.259,322.149 560.159,314.969C560.306,314.598 562.368,310.17 563.073,307.495C564.196,303.219 566.524,299.724 568.782,296.344C569.752,294.892 570.667,293.516 571.438,292.144C573.133,289.135 580.551,276.466 581.56,274.976C582.198,274.029 582.922,272.971 583.598,272.048L592.473,257.426Z" style="fill:rgb(237,28,36);fill-rule:nonzero;"/>
    </g>
</svg>
